<svg xmlns="http://www.w3.org/2000/svg" width="409" height="120" viewBox="0 0 409 120" fill="none"><path d="M20.5 49.5H0V83L35 103L70 83V42L41 25L30 44L49 55V71L35 79.5L20.5 71V49.5Z" fill="white"></path><path d="M21 40L0 27V3L21 14.5V40Z" fill="white"></path><path d="M123.44 97.056C121.136 97.056 118.928 96.736 116.816 96.096C114.704 95.456 112.784 94.592 111.056 93.504C109.392 92.416 107.984 91.168 106.832 89.76C105.744 88.288 105.008 86.784 104.624 85.248L107.984 84.096L107.12 95.904H92.816V24.96H108.272V57.216L105.104 56.064C105.488 54.4 106.224 52.864 107.312 51.456C108.4 49.984 109.776 48.704 111.44 47.616C113.104 46.464 114.928 45.568 116.912 44.928C118.896 44.288 120.944 43.968 123.056 43.968C127.472 43.968 131.376 45.12 134.768 47.424C138.224 49.664 140.944 52.8 142.928 56.832C144.912 60.8 145.904 65.344 145.904 70.464C145.904 75.648 144.912 80.256 142.928 84.288C141.008 88.256 138.352 91.392 134.96 93.696C131.568 95.936 127.728 97.056 123.44 97.056ZM119.408 84.096C121.712 84.096 123.728 83.52 125.456 82.368C127.184 81.216 128.496 79.648 129.392 77.664C130.352 75.616 130.832 73.216 130.832 70.464C130.832 67.776 130.352 65.408 129.392 63.36C128.496 61.312 127.184 59.744 125.456 58.656C123.728 57.568 121.712 57.024 119.408 57.024C117.04 57.024 114.992 57.568 113.264 58.656C111.536 59.744 110.192 61.312 109.232 63.36C108.272 65.408 107.792 67.776 107.792 70.464C107.792 73.216 108.272 75.616 109.232 77.664C110.192 79.648 111.536 81.216 113.264 82.368C114.992 83.52 117.04 84.096 119.408 84.096ZM156.004 96V24.96H171.076V55.392L168.004 56.544C168.708 54.24 169.956 52.16 171.748 50.304C173.604 48.384 175.812 46.848 178.372 45.696C180.932 44.544 183.62 43.968 186.436 43.968C190.276 43.968 193.508 44.768 196.132 46.368C198.756 47.904 200.74 50.24 202.083 53.376C203.428 56.448 204.1 60.224 204.1 64.704V96H188.644V65.952C188.644 63.904 188.356 62.208 187.78 60.864C187.204 59.52 186.308 58.528 185.092 57.888C183.94 57.184 182.5 56.864 180.772 56.928C179.428 56.928 178.18 57.152 177.028 57.6C175.876 57.984 174.884 58.592 174.052 59.424C173.22 60.192 172.548 61.088 172.036 62.112C171.588 63.136 171.364 64.256 171.364 65.472V96H163.78C161.988 96 160.452 96 159.172 96C157.892 96 156.836 96 156.004 96ZM235.757 96.864C231.469 96.864 227.629 95.744 224.237 93.504C220.909 91.2 218.253 88.064 216.269 84.096C214.285 80.064 213.293 75.52 213.293 70.464C213.293 65.28 214.285 60.704 216.269 56.736C218.253 52.768 220.973 49.664 224.429 47.424C227.885 45.12 231.821 43.968 236.237 43.968C238.669 43.968 240.877 44.32 242.861 45.024C244.909 45.728 246.701 46.72 248.237 48C249.773 49.216 251.085 50.656 252.173 52.32C253.261 53.92 254.061 55.648 254.573 57.504L251.405 57.12V45.024H266.669V96H251.117V83.712L254.573 83.616C254.061 85.408 253.229 87.104 252.077 88.704C250.925 90.304 249.517 91.712 247.853 92.928C246.189 94.144 244.333 95.104 242.285 95.808C240.237 96.512 238.061 96.864 235.757 96.864ZM239.981 83.904C242.349 83.904 244.397 83.36 246.125 82.272C247.853 81.184 249.197 79.648 250.157 77.664C251.117 75.616 251.597 73.216 251.597 70.464C251.597 67.712 251.117 65.344 250.157 63.36C249.197 61.312 247.853 59.744 246.125 58.656C244.397 57.504 242.349 56.928 239.981 56.928C237.677 56.928 235.661 57.504 233.933 58.656C232.269 59.744 230.957 61.312 229.997 63.36C229.037 65.344 228.557 67.712 228.557 70.464C228.557 73.216 229.037 75.616 229.997 77.664C230.957 79.648 232.269 81.184 233.933 82.272C235.661 83.36 237.677 83.904 239.981 83.904ZM281.086 96V45.024H296.446V96H281.086ZM288.766 34.944C285.886 34.944 283.614 34.272 281.95 32.928C280.35 31.52 279.55 29.536 279.55 26.976C279.55 24.672 280.382 22.784 282.046 21.312C283.71 19.84 285.95 19.104 288.766 19.104C291.646 19.104 293.886 19.808 295.486 21.216C297.086 22.56 297.886 24.48 297.886 26.976C297.886 29.344 297.054 31.264 295.39 32.736C293.79 34.208 291.582 34.944 288.766 34.944ZM310.879 96V45.024H325.471L326.143 61.632L323.263 58.464C324.031 55.712 325.279 53.248 327.007 51.072C328.799 48.896 330.879 47.168 333.247 45.888C335.615 44.608 338.143 43.968 340.831 43.968C341.983 43.968 343.039 44.064 343.999 44.256C345.023 44.448 345.951 44.672 346.783 44.928L342.559 61.92C341.855 61.472 340.895 61.12 339.679 60.864C338.527 60.544 337.311 60.384 336.031 60.384C334.623 60.384 333.311 60.64 332.095 61.152C330.879 61.6 329.855 62.272 329.023 63.168C328.191 64.064 327.519 65.12 327.007 66.336C326.559 67.552 326.335 68.928 326.335 70.464V96H310.879ZM371.226 96.864C366.938 96.864 363.098 95.744 359.706 93.504C356.378 91.2 353.722 88.064 351.738 84.096C349.754 80.064 348.762 75.52 348.762 70.464C348.762 65.28 349.754 60.704 351.738 56.736C353.722 52.768 356.442 49.664 359.898 47.424C363.354 45.12 367.29 43.968 371.706 43.968C374.138 43.968 376.346 44.32 378.33 45.024C380.378 45.728 382.17 46.72 383.706 48C385.242 49.216 386.554 50.656 387.642 52.32C388.73 53.92 389.53 55.648 390.042 57.504L386.874 57.12V45.024H402.138V96H386.586V83.712L390.042 83.616C389.53 85.408 388.698 87.104 387.546 88.704C386.394 90.304 384.986 91.712 383.322 92.928C381.658 94.144 379.802 95.104 377.754 95.808C375.706 96.512 373.53 96.864 371.226 96.864ZM375.45 83.904C377.818 83.904 379.866 83.36 381.594 82.272C383.322 81.184 384.666 79.648 385.626 77.664C386.586 75.616 387.066 73.216 387.066 70.464C387.066 67.712 386.586 65.344 385.626 63.36C384.666 61.312 383.322 59.744 381.594 58.656C379.866 57.504 377.818 56.928 375.45 56.928C373.146 56.928 371.13 57.504 369.402 58.656C367.738 59.744 366.426 61.312 365.466 63.36C364.506 65.344 364.026 67.712 364.026 70.464C364.026 73.216 364.506 75.616 365.466 77.664C366.426 79.648 367.738 81.184 369.402 82.272C371.13 83.36 373.146 83.904 375.45 83.904Z" fill="white"></path></svg>